<?xml version="1.0" encoding="UTF-8"?>
<svg id="Layer_1" data-name="Layer 1" xmlns="http://www.w3.org/2000/svg" viewBox="0 0 595.74 330.63">
  <defs>
    <style>
      .cls-1 {
        fill: #7d4339;
      }

      .cls-2 {
        fill: none;
      }

      .cls-3 {
        fill: #b9a38d;
      }

      .cls-4 {
        fill: #412c2c;
      }

      .cls-5 {
        fill: #c39464;
      }
    </style>
  </defs>
  <rect class="cls-4" width="595.73" height="330.63"/>
  <path class="cls-2" d="M174.15,263.04c50.96-17.11,88.17,19.43,127.31-5.09,33.22-20.81,18.53-54.71,53.7-76.39,37.19-22.92,66.45,7.06,106.02-17.13,29.6-18.09,24.62-41.82,52.31-59.72,24.47-15.82,45.94-15.99,82.23-4.99V0H0v330.63h103.73c23.95-44.3,50.27-60.83,70.42-67.59Z"/>
  <g>
    <path class="cls-3" d="M291.8,303.71c23.05-8.09,35.53,6.55,58.19-1.17,29.86-10.18,21.91-44.82,52.72-55.45,34.56-11.92,55.11,13.47,91.38.39,31.87-11.5,31.45-36.68,61.32-48.03,10.37-3.94,23.53-5.88,40.33-2.89v-60.7c-30.61-9.27-48.72-9.13-69.36,4.21-23.36,15.1-19.16,35.12-44.12,50.38-33.38,20.4-58.06-4.88-89.43,14.45-29.67,18.29-17.28,46.88-45.3,64.44-33.02,20.68-64.4-10.14-107.39,4.29-17,5.71-39.2,19.65-59.4,57.01h79.61c7.33-11.4,17.46-22,31.48-26.92h-.02Z"/>
    <path class="cls-5" d="M414.71,298.21c35.87-10.94,57.05,3.92,87.87-14.45,21.9-13.05,20.86-26.3,42.96-38.27,16.77-9.08,34.67-10.81,50.2-9.78v-39.17c-16.79-2.99-29.96-1.05-40.33,2.89-29.85,11.36-29.44,36.54-61.32,48.03-36.27,13.08-56.82-12.32-91.38-.39-30.81,10.63-22.86,45.27-52.72,55.45-22.66,7.73-35.15-6.92-58.19,1.17-14.02,4.92-24.14,15.52-31.48,26.92h103.66c18.94-19.54,36.9-28.2,50.73-32.42h0Z"/>
    <path class="cls-1" d="M595.73,235.72c-15.53-1.04-33.43.7-50.2,9.78-22.09,11.97-21.06,25.22-42.96,38.27-30.82,18.37-51.99,3.51-87.87,14.45-13.83,4.22-31.79,12.87-50.73,32.42h231.74v-94.91h.02Z"/>
  </g>
</svg>